<svg width="11" height="14" viewBox="0 0 11 14" fill="none" xmlns="http://www.w3.org/2000/svg">
<path d="M6.60412 9.97308L5.54256 10.5067C5.32134 10.6105 5.18905 10.8321 5.18955 11.0683C5.19005 11.3045 5.32339 11.5256 5.54494 11.6285L6.60875 12.1576C6.62351 12.1575 6.62354 12.1723 6.62357 12.1871L6.80323 13.3675C6.83325 13.6036 6.99605 13.7951 7.23229 13.8684C7.45389 13.9418 7.70461 13.8822 7.86663 13.7047L8.69142 12.8468C8.70616 12.832 8.70616 12.832 8.72092 12.832L9.90216 13.0361C10.1385 13.0799 10.3743 12.9761 10.5068 12.7839C10.654 12.5917 10.6682 12.3408 10.5497 12.1343L9.98659 11.0876L9.98653 11.0581L10.5452 9.99419C10.5893 9.90552 10.6186 9.80212 10.6184 9.69878C10.6181 9.56591 10.5735 9.44791 10.4995 9.33007C10.3514 9.13846 10.1299 9.03559 9.89379 9.08038L8.71342 9.28956C8.69865 9.28959 8.69865 9.28959 8.68386 9.27486L7.85544 8.42047C7.69267 8.24366 7.4417 8.18514 7.22041 8.25942C6.99912 8.33371 6.83724 8.52597 6.79347 8.76215L6.61882 9.94334C6.61885 9.95833 6.61888 9.97309 6.60412 9.97312L6.60412 9.97308ZM7.39867 8.83488C7.41344 8.83485 7.4282 8.83482 7.42823 8.84958L8.25665 9.70397C8.40459 9.85129 8.61129 9.9099 8.80315 9.87997L9.98352 9.67079C9.98352 9.67079 9.99828 9.67076 10.0131 9.68549C10.0279 9.70022 10.0131 9.71502 10.0131 9.71502L9.4545 10.7789C9.4104 10.8676 9.38109 10.971 9.38131 11.0743C9.38153 11.1776 9.41125 11.2662 9.45575 11.3694L10.0189 12.4309C10.0189 12.4309 10.0337 12.4456 10.019 12.4604C10.0042 12.4752 9.98946 12.4752 9.98946 12.4752L8.80821 12.2711C8.60147 12.242 8.39504 12.3015 8.26247 12.4494L7.43767 13.3073C7.43767 13.3073 7.42294 13.3221 7.40818 13.3221C7.39341 13.3221 7.39338 13.3074 7.37859 13.2926L7.19893 12.1122C7.16897 11.9056 7.03573 11.7288 6.8585 11.6406L5.79469 11.1115C5.79469 11.1115 5.7799 11.0968 5.77987 11.082C5.77983 11.0673 5.79457 11.0525 5.79457 11.0525L6.85612 10.5189C7.03309 10.4299 7.16546 10.2525 7.19456 10.0458L7.36921 8.86466C7.38394 8.84964 7.38391 8.83488 7.39867 8.83484L7.39867 8.83488Z" fill="white"/>
<path d="M2.69543 4.32834C2.53266 4.15153 2.2817 4.09301 2.0604 4.16729C1.8391 4.24158 1.67723 4.43384 1.63346 4.67003L1.45881 5.85121C1.45884 5.86597 1.44408 5.866 1.44411 5.88077L0.367788 6.41452C0.146564 6.51833 0.0142771 6.73994 0.0147775 6.97616C0.0152778 7.21238 0.148613 7.43341 0.370164 7.5363L1.44871 8.0506C1.46347 8.05057 1.4635 8.06534 1.46353 8.0801L1.64319 9.26053C1.67321 9.49667 1.83601 9.68812 2.07225 9.76145C2.29385 9.83479 2.54457 9.77521 2.70659 9.59771L3.53139 8.73982C3.54612 8.72503 3.54612 8.72503 3.56088 8.725L4.74213 8.92918C4.97843 8.97296 5.21429 8.86912 5.34675 8.67693C5.49397 8.4847 5.5082 8.23382 5.38966 8.02738L4.82655 6.98062L4.82649 6.9511L5.38513 5.88723C5.42923 5.79856 5.45854 5.69515 5.45832 5.59182C5.45803 5.45895 5.4135 5.34094 5.33943 5.2231C5.1914 5.0315 4.96984 4.92863 4.73375 4.97342L3.55338 5.1826C3.53861 5.18263 3.53861 5.18263 3.52382 5.1679L2.69543 4.32834ZM3.0967 5.59687C3.24464 5.74419 3.45134 5.8028 3.6432 5.77287L4.82357 5.56369C4.82357 5.56369 4.83833 5.56366 4.85312 5.57839C4.86792 5.59312 4.85319 5.60791 4.85319 5.60791L4.29455 6.67178C4.25045 6.76045 4.22114 6.86386 4.22136 6.96719C4.22158 7.07053 4.25129 7.15905 4.2958 7.26229L4.85894 8.32379C4.85894 8.32379 4.87373 8.33852 4.859 8.35331C4.84427 8.36811 4.82951 8.36814 4.82951 8.36814L3.64826 8.16396C3.44152 8.13487 3.23509 8.19436 3.10252 8.34227L2.27772 9.20016C2.27772 9.20016 2.26299 9.21496 2.24823 9.21499C2.23346 9.21502 2.23343 9.20025 2.21864 9.18552L2.03898 8.00509C2.00902 7.79847 1.87578 7.62171 1.69855 7.53352L0.63474 7.00441C0.63474 7.00441 0.619946 6.98968 0.619915 6.97492C0.619883 6.96015 0.634615 6.94536 0.634615 6.94536L1.69617 6.41175C1.87314 6.3228 2.00551 6.14537 2.0346 5.93874L2.20926 4.75756C2.20926 4.75756 2.20923 4.74279 2.23872 4.72797C2.25349 4.72794 2.26825 4.72791 2.26828 4.74267L3.0967 5.59687Z" fill="white"/>
<path d="M7.8381 0.199468C7.67534 0.0226572 7.42437 -0.0358628 7.20307 0.0384195C6.98179 0.112702 6.81991 0.304964 6.77614 0.541152L6.60149 1.72233C6.60152 1.7371 6.58675 1.73713 6.58679 1.75189L5.52523 2.2855C5.304 2.38931 5.17172 2.61092 5.17222 2.84714C5.17272 3.08336 5.30605 3.30438 5.5276 3.40727L6.59141 3.93638C6.60618 3.93635 6.60621 3.95111 6.60624 3.96587L6.78589 5.14631C6.81592 5.38245 6.97872 5.5739 7.21495 5.64722C7.43655 5.72057 7.68728 5.66099 7.8493 5.48349L8.67397 4.62583C8.68871 4.61104 8.68871 4.61104 8.70347 4.611L9.88471 4.81518C10.121 4.85897 10.3569 4.75513 10.4893 4.56293C10.6366 4.3707 10.6508 4.11983 10.5323 3.91339L9.96914 2.86663L9.96908 2.8371L10.5277 1.77323C10.5718 1.68456 10.6011 1.58116 10.6009 1.47782C10.6006 1.34496 10.5561 1.22695 10.482 1.10911C10.334 0.917505 10.1124 0.814638 9.87634 0.859423L8.69597 1.0686C8.6812 1.06864 8.6812 1.06864 8.66641 1.0539L7.8381 0.199468ZM8.25402 1.46797C8.40197 1.61528 8.60866 1.67389 8.80052 1.64396L9.98089 1.43478C9.98089 1.43478 9.99565 1.43475 10.0104 1.44948C10.0252 1.46421 10.0105 1.47901 10.0105 1.47901L9.45187 2.54288C9.40777 2.63155 9.37847 2.73495 9.37868 2.83829C9.3789 2.94163 9.40862 3.03014 9.45312 3.13338L10.0162 4.18003C10.0162 4.18003 10.031 4.19476 10.0163 4.20955C10.0016 4.22435 9.9868 4.22438 9.9868 4.22438L8.80555 4.0202C8.59881 3.99111 8.39238 4.0506 8.25981 4.19851L7.42028 5.0712C7.42028 5.0712 7.40554 5.08599 7.39078 5.08602C7.37602 5.08606 7.37599 5.07129 7.36119 5.05656L7.18154 3.87613C7.15158 3.66951 7.01833 3.49274 6.84111 3.40455L5.7773 2.87545C5.7773 2.87545 5.7625 2.86072 5.76247 2.84595C5.76244 2.83119 5.77717 2.8164 5.77717 2.8164L6.83873 2.28279C7.0157 2.19384 7.14807 2.0164 7.17716 1.80978L7.35182 0.628594C7.35182 0.628594 7.35178 0.613831 7.38128 0.599006C7.39604 0.598975 7.4108 0.598943 7.41084 0.613706L8.25402 1.46797Z" fill="white"/>
</svg>
