<svg width="10" height="12" viewBox="0 0 10 12" fill="none" xmlns="http://www.w3.org/2000/svg">
<path d="M5.98908 8.23891L5.02674 8.67965C4.82619 8.76539 4.7063 8.94847 4.70681 9.14364C4.70731 9.3388 4.82825 9.52143 5.02914 9.60647L5.99376 10.0438C6.00715 10.0437 6.00718 10.0559 6.00721 10.0681L6.17036 11.0434C6.19764 11.2385 6.34528 11.3967 6.55948 11.4573C6.76041 11.518 6.98772 11.4688 7.13457 11.3221L7.88218 10.6134C7.89553 10.6012 7.89553 10.6012 7.90891 10.6012L8.97993 10.77C9.19418 10.8063 9.40801 10.7205 9.52806 10.5617C9.66149 10.4029 9.67434 10.1956 9.56682 10.0251L9.05604 9.16015L9.05598 9.13575L9.56223 8.25685C9.60219 8.18359 9.62874 8.09816 9.62852 8.01279C9.62823 7.90301 9.58782 7.80551 9.52065 7.70814C9.38639 7.54981 9.18549 7.4648 8.97145 7.50177L7.90131 7.67445C7.88793 7.67447 7.88793 7.67447 7.87451 7.6623L7.12323 6.95629C6.97562 6.81019 6.74807 6.76181 6.54745 6.82316C6.34683 6.8845 6.20011 7.04333 6.16048 7.23846L6.0024 8.21434C6.00243 8.22673 6.00246 8.23892 5.98908 8.23895L5.98908 8.23891ZM6.7092 7.29863C6.72258 7.2986 6.73597 7.29858 6.736 7.31078L7.48728 8.01678C7.62145 8.13851 7.80886 8.18697 7.9828 8.16226L9.05294 7.98958C9.05294 7.98958 9.06632 7.98956 9.07974 8.00173C9.09315 8.0139 9.0798 8.02612 9.0798 8.02612L8.57355 8.90503C8.53359 8.97829 8.50704 9.06371 8.50726 9.14909C8.50748 9.23447 8.53444 9.30761 8.57482 9.39291L9.08563 10.27C9.08563 10.27 9.09904 10.2822 9.08569 10.2944C9.07234 10.3066 9.05895 10.3066 9.05895 10.3066L7.98793 10.1378C7.80048 10.1137 7.61334 10.1629 7.49317 10.285L6.74557 10.9937C6.74557 10.9937 6.73221 11.006 6.71883 11.006C6.70544 11.006 6.70541 10.9938 6.692 10.9816L6.52885 10.0063C6.50163 9.83562 6.38079 9.68956 6.22009 9.61667L5.25547 9.17939C5.25547 9.17939 5.24205 9.16722 5.24202 9.15502C5.24199 9.14283 5.25534 9.1306 5.25534 9.1306L6.21768 8.68987C6.37811 8.6164 6.49808 8.46981 6.52441 8.2991L6.6825 7.32322C6.69585 7.31081 6.69582 7.29862 6.7092 7.29859L6.7092 7.29863Z" fill="white"/>
<path d="M2.44378 3.57595C2.29617 3.42984 2.06862 3.38146 1.868 3.44281C1.66737 3.50415 1.52066 3.66298 1.48103 3.85811L1.32295 4.83399C1.32298 4.84619 1.30959 4.84622 1.30962 4.85841L0.333897 5.29927C0.133348 5.38501 0.0134604 5.56809 0.0139672 5.76326C0.0144741 5.95842 0.135412 6.14105 0.336304 6.22609L1.31428 6.65115C1.32767 6.65112 1.3277 6.66332 1.32773 6.67552L1.49088 7.65082C1.51816 7.84593 1.6658 8.00412 1.88 8.06474C2.08093 8.12536 2.30824 8.07617 2.45509 7.92954L3.2027 7.22084C3.21605 7.20862 3.21605 7.20862 3.22943 7.2086L4.30046 7.37744C4.51471 7.41365 4.72853 7.32788 4.84858 7.16911C4.98202 7.0103 4.99486 6.80303 4.88734 6.63245L4.37657 5.76754L4.3765 5.74315L4.88275 4.86424C4.92271 4.79099 4.94926 4.70556 4.94904 4.62018C4.94875 4.5104 4.90835 4.4129 4.84117 4.31553C4.70691 4.15721 4.50602 4.07219 4.29197 4.10916L3.22183 4.28184C3.20845 4.28187 3.20845 4.28187 3.19503 4.26969L2.44378 3.57595ZM2.80788 4.62406C2.94205 4.74579 3.12946 4.79425 3.3034 4.76954L4.37354 4.59686C4.37354 4.59686 4.38692 4.59684 4.40034 4.60901C4.41375 4.62118 4.4004 4.6334 4.4004 4.6334L3.89415 5.51231C3.85419 5.58557 3.82764 5.671 3.82786 5.75637C3.82809 5.84175 3.85505 5.91489 3.89542 6.00019L4.40623 6.87728C4.40623 6.87728 4.41965 6.88945 4.40629 6.90167C4.39294 6.91389 4.37956 6.91392 4.37956 6.91392L3.30853 6.74508C3.12108 6.72102 2.93394 6.77014 2.81377 6.89233L2.06616 7.60102C2.06616 7.60102 2.05281 7.61324 2.03943 7.61327C2.02604 7.61329 2.02601 7.60109 2.01259 7.58892L1.84944 6.61362C1.82223 6.44291 1.70139 6.29684 1.54068 6.22396L0.576063 5.78667C0.576063 5.78667 0.562646 5.7745 0.562614 5.7623C0.562583 5.75011 0.575936 5.73789 0.575936 5.73789L1.53828 5.29715C1.6987 5.22368 1.81868 5.0771 1.84501 4.90638L2.00309 3.9305C2.00309 3.9305 2.00306 3.91831 2.0298 3.90606C2.04318 3.90604 2.05657 3.90601 2.0566 3.91821L2.80788 4.62406Z" fill="white"/>
<path d="M7.10736 0.164945C6.95975 0.018842 6.7322 -0.0295392 6.53158 0.0318056C6.33097 0.0931509 6.18424 0.251979 6.14461 0.447113L5.98653 1.42299C5.98656 1.43519 5.97318 1.43521 5.97321 1.44741L5.01087 1.88815C4.81032 1.97389 4.69043 2.15696 4.69094 2.35213C4.69144 2.5473 4.81238 2.72993 5.01327 2.81497L5.97789 3.25225C5.99128 3.25222 5.99131 3.26442 5.99134 3.27662L6.15449 4.25192C6.18177 4.44703 6.32941 4.60522 6.54361 4.66584C6.74454 4.72646 6.97185 4.67727 7.1187 4.53064L7.8662 3.82214C7.87955 3.80992 7.87956 3.80992 7.89294 3.80989L8.96396 3.97873C9.17821 4.01494 9.39204 3.92918 9.51208 3.7704C9.64552 3.61159 9.65837 3.40432 9.55084 3.23375L9.04007 2.36884L9.04 2.34444L9.54625 1.46553C9.58622 1.39228 9.61276 1.30685 9.61254 1.22147C9.61226 1.1117 9.57185 1.01419 9.50467 0.916826C9.37041 0.758502 9.16952 0.673485 8.95547 0.710458L7.88534 0.883137C7.87195 0.883161 7.87195 0.883161 7.85854 0.870988L7.10736 0.164945ZM7.48474 1.21304C7.61891 1.33477 7.80632 1.38322 7.98026 1.35851L9.0504 1.18584C9.0504 1.18584 9.06378 1.18581 9.0772 1.19798C9.09061 1.21016 9.07726 1.22238 9.07726 1.22238L8.57101 2.10129C8.53105 2.17454 8.5045 2.25997 8.50472 2.34535C8.50495 2.43072 8.53191 2.50386 8.57228 2.58917L9.08306 3.45398C9.08306 3.45398 9.09647 3.46615 9.08312 3.47837C9.06977 3.49059 9.05638 3.49062 9.05638 3.49062L7.98536 3.32178C7.79791 3.29772 7.61077 3.34684 7.4906 3.46903L6.72964 4.18995C6.72964 4.18995 6.71629 4.20217 6.7029 4.20219C6.68952 4.20222 6.68948 4.19002 6.67607 4.17785L6.51292 3.20254C6.48571 3.03183 6.36486 2.88577 6.20416 2.81288L5.23954 2.3756C5.23954 2.3756 5.22612 2.36342 5.22609 2.35123C5.22606 2.33903 5.23941 2.32681 5.23941 2.32681L6.20175 1.88607C6.36218 1.8126 6.48215 1.66602 6.50848 1.49531L6.66657 0.51943C6.66657 0.51943 6.66654 0.507233 6.69327 0.494988C6.70666 0.494964 6.72004 0.49494 6.72007 0.507137L7.48474 1.21304Z" fill="white"/>
</svg>
