<svg width="33" height="34" viewBox="0 0 33 34" fill="none" xmlns="http://www.w3.org/2000/svg">
<g clip-path="url(#clip0_1258_6625)">
<path d="M30.9736 18.6222C30.9736 23.39 28.8517 27.6425 25.529 30.4386C22.9772 32.5878 19.7166 33.8742 16.1641 33.8742C15.9556 33.8742 15.748 33.8694 15.5396 33.8608C15.2421 33.8475 14.9549 33.8294 14.6621 33.7969C13.515 33.6786 12.4068 33.4228 11.3533 33.0487C10.2015 32.6469 9.11187 32.0953 8.11024 31.4197C8.07873 31.4015 8.05279 31.3786 8.02129 31.3605H8.01665C7.98144 31.3376 7.9453 31.3099 7.91009 31.2832C7.53761 31.0322 7.18366 30.7631 6.84268 30.4758C3.49494 27.6835 1.35547 23.4081 1.35547 18.6222C1.35547 11.9018 5.57697 6.19395 11.4376 4.16314C12.0936 3.93506 12.7663 3.75278 13.4575 3.6249C14.335 3.45598 15.2384 3.36914 16.1641 3.36914C17.0415 3.36914 17.8958 3.44644 18.7335 3.59722C20.3995 3.89784 21.9719 4.48666 23.3979 5.30833C27.9168 7.92224 30.9727 12.9048 30.9727 18.6222H30.9736Z" fill="url(#paint0_linear_1258_6625)"/>
<path d="M7.5 24.3477C9.91559 16.4831 6.48632 1.504 17.8063 0.966718C26.4022 0.55922 23.7559 14.5516 23.3 21.7596C23.3 21.7596 20.9854 23.9183 16.1413 23.5404C11.2971 23.1634 7.5 24.3477 7.5 24.3477Z" fill="#603913"/>
<path d="M12.5375 20.5825C13.0703 20.0042 13.0814 19.5289 14.361 19.3715C19.0263 18.7931 19.6156 18.3742 19.6045 19.7446C19.5962 21.1121 16.3893 23.8119 14.3258 23.0838C12.2651 22.3547 11.5562 21.6532 12.5375 20.5825Z" fill="#A380B7"/>
<path d="M17.0676 13.3896L19.4276 13.7551L18.4482 20.0623L21.8034 22.0893L14.2953 28.8803C14.2953 28.8803 12.6701 25.2863 11.6008 22.91C10.993 21.5596 14.5686 19.3685 14.5686 19.3685L17.0667 13.3887L17.0676 13.3896Z" fill="#FDCBB2"/>
<path d="M19.2013 14.5479L15.8517 16.3038L15.0938 18.1189L19.0586 16.1416L19.2013 14.5479Z" fill="#EAB7A0"/>
<path d="M22.1106 12.5706C22.4803 11.559 22.396 10.1313 21.5759 9.92136C21.3313 9.85837 21.0367 9.90895 20.7365 10.0359C18.7554 9.80684 21.7279 3.51019 16.8161 2.76009C14.0827 2.34209 10.8183 4.27079 10.9888 11.2994C11.0602 14.254 13.0838 16.5053 13.0838 16.5053C15.6708 17.0464 18.3348 16.1121 19.7089 14.2359C20.6299 14.1147 21.6408 13.8532 22.1096 12.5706H22.1106Z" fill="#FDCBB2"/>
<path d="M17.2122 9.47643C17.1418 9.17296 16.9741 8.87998 16.7165 8.67862C16.4635 8.4763 16.1124 8.37419 15.7695 8.46485C16.0846 8.3007 16.4895 8.31406 16.8295 8.48202C17.1724 8.64712 17.4568 8.95155 17.6283 9.31897L17.2122 9.47643Z" fill="#001848"/>
<path d="M17.0526 9.26129C17.0976 8.93089 16.9385 8.63481 16.6973 8.59998C16.4561 8.56516 16.2241 8.80476 16.1791 9.13516C16.1341 9.46556 16.2932 9.76163 16.5344 9.79646C16.7757 9.83129 17.0077 9.59169 17.0526 9.26129Z" fill="black"/>
<path d="M11.4951 7.86872C11.7888 7.65877 12.1539 7.54616 12.5004 7.61487C12.8525 7.67881 13.111 7.95938 13.2129 8.25808C13.0406 7.98801 12.7561 7.82196 12.4809 7.842C12.2058 7.85536 11.9556 8.01187 11.7842 8.21323L11.4941 7.86776L11.4951 7.86872Z" fill="#001848"/>
<path d="M13.031 8.64289C13.0963 8.32097 13.0141 8.03088 12.8473 7.99496C12.6805 7.95903 12.4923 8.19089 12.4269 8.51281C12.3616 8.83473 12.4438 9.12482 12.6106 9.16074C12.7774 9.19667 12.9656 8.96482 13.031 8.64289Z" fill="black"/>
<path d="M14.4579 7.99414C13.3247 10.4754 12.6816 10.4639 12.6816 10.4639C13.0847 11.3028 13.687 12.1455 13.687 12.1455L14.4579 7.99414Z" fill="#EAB7A0"/>
<path d="M18.5445 7.60001C18.5445 7.60001 17.5021 6.89571 16.3643 6.84323C15.2255 6.79074 14.9707 7.18583 14.9707 7.18583C14.9707 7.18583 15.1653 6.31071 16.1438 6.25822C17.6745 6.17711 18.5445 7.60001 18.5445 7.60001Z" fill="#603913"/>
<path d="M11.6934 6.92422C11.6934 6.92422 11.9648 6.48428 12.707 6.68755C13.4242 6.8851 13.8903 7.30023 13.8903 7.30023C13.8903 7.30023 13.6142 6.71141 13.0582 6.35258C11.8481 5.57099 11.6934 6.92327 11.6934 6.92327V6.92422Z" fill="#603913"/>
<path d="M20.544 12.0446C20.3949 11.8957 20.3346 11.6714 20.3402 11.4558C20.342 11.2363 20.4227 11.0244 20.5329 10.844C20.6478 10.6637 20.8026 10.5243 20.9703 10.4155C21.1408 10.3115 21.3279 10.2428 21.5308 10.2275C21.4206 10.407 21.3048 10.5482 21.1945 10.6866C21.0935 10.8316 20.9814 10.9557 20.9026 11.096C20.7275 11.368 20.6015 11.6371 20.5431 12.0455L20.544 12.0446Z" fill="#CA807A"/>
<path d="M14.9218 12.6152C14.944 12.7842 14.5409 12.9817 14.0202 13.0552C13.4995 13.1296 13.0593 13.0523 13.0371 12.8834L14.9218 12.6152Z" fill="#CA807A"/>
<path d="M12.5848 25.7305L11.3534 33.0492C10.1665 32.6341 9.04994 32.0634 8.02236 31.361C8.01773 31.3744 8.02236 31.3887 8.02236 31.402C8.01773 31.3887 8.01773 31.3744 8.01773 31.361C7.61003 31.0871 7.21994 30.7903 6.84375 30.4763L7.16249 25.2342C7.19307 24.7189 7.36634 24.2303 7.64987 23.8151C7.7518 23.6691 7.86669 23.5326 7.99549 23.4086L8.10668 23.2988C8.27995 23.1299 8.47453 22.9887 8.67375 22.8789H8.67838C9.30289 22.5325 10.0247 22.4638 10.6807 22.6604C10.9466 22.7377 11.2033 22.857 11.4387 23.0249C11.5582 23.1022 11.674 23.1986 11.7796 23.3036C11.864 23.3809 11.939 23.4725 12.0141 23.5641C12.3773 24.0155 12.5811 24.5767 12.6117 25.1521C12.6247 25.344 12.6163 25.5396 12.5848 25.7314V25.7305Z" fill="#2E2F79"/>
<path d="M15.5396 33.8609C15.2422 33.8476 14.955 33.8294 14.6622 33.797C13.5151 33.6787 12.4069 33.4229 11.3534 33.0488C10.1664 32.6337 9.04987 32.063 8.0223 31.3606C8.01303 31.2967 8.00932 31.2279 8.00469 31.164C7.98709 30.8634 7.99542 30.5571 8.0399 30.2469C8.27896 28.5721 8.4476 26.5288 8.54952 24.9771C8.55879 24.7853 8.57176 24.603 8.58473 24.4293C8.59399 24.3014 8.60233 24.1783 8.6116 24.0648C8.64218 23.5762 8.66071 23.1839 8.67368 22.9329V22.91C8.67831 22.8967 8.67831 22.8871 8.67831 22.8785C8.68758 22.7144 8.69129 22.6276 8.69129 22.6276C9.61231 22.3355 10.7029 21.679 11.8454 20.9031C12.0316 20.7752 12.2178 20.6473 12.4078 20.5156L12.4606 20.675L12.5403 20.926L13.0583 22.5455L13.3594 23.4807L13.4307 23.6954C13.466 23.8004 13.5021 23.914 13.5373 24.0285L14.4982 27.0213C14.4982 27.0213 14.525 27.1215 14.5695 27.3085C14.5825 27.3496 14.5917 27.4001 14.6047 27.4498C14.614 27.486 14.6223 27.5223 14.6316 27.5643C14.6492 27.633 14.6668 27.7055 14.6844 27.7876C14.7242 27.9651 14.7687 28.1751 14.8169 28.4079C15.0523 29.5254 15.3441 31.1774 15.4331 32.8112C15.4507 33.1261 15.4859 33.4821 15.5396 33.8609Z" fill="#2E2F79"/>
<path d="M25.5299 30.4378C22.9781 32.587 19.7174 33.8734 16.1649 33.8734C15.9564 33.8734 15.7489 33.8686 15.5404 33.86C15.243 33.8467 14.9557 33.8286 14.6629 33.7961C14.6676 33.2216 14.6805 32.628 14.712 32.044C14.8093 30.2374 14.6546 29.4568 14.6147 28.595C14.6055 28.3984 14.6018 28.198 14.6101 27.9795C14.6147 27.8468 14.6231 27.7104 14.6324 27.5643C14.6416 27.4909 14.65 27.4136 14.6592 27.3363C14.7704 26.401 15.4033 25.0688 16.4623 23.5581C16.7014 23.2203 16.959 22.8786 17.2333 22.5274C17.7735 21.8479 18.385 21.1408 19.067 20.4336C19.2263 20.2647 19.3903 20.0958 19.5543 19.9316C19.5543 19.9316 19.559 19.9545 19.5719 20.0004C19.6294 20.1922 19.8647 20.74 20.7635 21.1226C20.9183 21.1914 21.0962 21.2505 21.2954 21.3049C21.654 21.4051 22.4564 21.5416 23.2449 21.8117C24.0649 22.0903 24.8748 22.5188 25.1583 23.1983C25.5438 26.0956 25.7031 28.4996 25.5308 30.4388L25.5299 30.4378Z" fill="#2E2F79"/>
<path d="M8.73029 23.9005V23.9101C8.72566 24.5123 8.72102 25.124 8.69045 25.7348C8.65524 26.3465 8.58852 26.9487 8.53107 27.5556C8.46436 28.1626 8.39857 28.7695 8.31889 29.3765C8.27905 29.6771 8.23457 29.9786 8.19009 30.2754C8.14098 30.5675 8.11041 30.8595 8.11504 31.1563V31.1658L8.11041 31.3481V31.3615C8.11041 31.3615 8.11041 31.3662 8.10577 31.3748L8.11041 31.393V31.4206C8.0789 31.4025 8.05296 31.3796 8.02146 31.3615H8.01682C7.98161 31.3386 7.94548 31.3109 7.91027 31.2842L7.89266 31.1658C7.85282 30.8604 7.83985 30.5455 7.87042 30.2354L7.9325 29.323C7.97698 28.7208 8.03443 28.1139 8.09188 27.5117L8.30036 25.7099C8.36244 25.1078 8.42915 24.5008 8.50884 23.8939C8.53107 23.6753 8.56629 23.4606 8.59316 23.2506C8.62373 23.0407 8.6506 22.8221 8.68581 22.6074C8.69879 22.8221 8.71639 23.0407 8.71639 23.2602L8.72936 23.9034L8.73029 23.9005Z" fill="#0D2263"/>
<path d="M13.9351 25.4555C13.4727 23.773 13.1197 22.3501 12.5656 22.4054C12.0097 22.4617 10.1973 23.9877 10.1973 23.9877L11.084 21.5465L13.3337 19.6455C13.3337 19.6455 12.3868 20.5025 12.8927 21.412C13.3254 22.1926 14.8468 25.967 14.5309 28.1781L13.9351 25.4545V25.4555Z" fill="white"/>
<path d="M14.5312 28.1795C14.6758 25.2841 16.6985 22.5099 17.2063 21.9554C17.7122 21.4009 19.5181 19.7767 19.444 18.9932C19.9832 20.0334 20.8403 20.9553 20.8403 20.9553L19.5339 23.8822C19.5339 23.8822 18.4423 22.4564 17.8188 22.5184C17.1942 22.5814 16.0277 24.7869 15.6181 25.621C15.2077 26.455 14.5322 28.1805 14.5322 28.1805L14.5312 28.1795Z" fill="white"/>
</g>
<defs>
<linearGradient id="paint0_linear_1258_6625" x1="9.90409" y1="4.79586" x2="23.0425" y2="32.1534" gradientUnits="userSpaceOnUse">
<stop offset="0.05" stop-color="#477FA3"/>
<stop offset="1" stop-color="#005C82"/>
</linearGradient>
<clipPath id="clip0_1258_6625">
<rect width="32" height="32.97" fill="white" transform="translate(0.164062 0.904297)"/>
</clipPath>
</defs>
</svg>
