<svg width="27" height="34" viewBox="0 0 27 34" fill="none" xmlns="http://www.w3.org/2000/svg">
<path d="M22.8384 29.7728C22.7543 29.861 22.6686 29.9483 22.5821 30.0348C22.5155 30.1008 22.4489 30.1659 22.3815 30.2292C22.1585 30.4425 21.9288 30.6471 21.6916 30.8441C21.3878 31.0967 21.0724 31.3357 20.747 31.56C20.7312 31.5703 20.7162 31.5806 20.7004 31.5917C20.5839 31.6705 20.4665 31.7484 20.3475 31.8229C20.1994 31.918 20.0488 32.0096 19.8965 32.0978C19.6044 32.2682 19.3047 32.4284 18.9985 32.5765C18.6748 32.7332 18.3444 32.8762 18.0073 33.0056C17.9399 33.0313 17.8717 33.0569 17.8034 33.0818C17.6994 33.1195 17.5945 33.1563 17.4888 33.1914C17.2267 33.2805 16.9612 33.3618 16.6916 33.4337C16.4294 33.5048 16.1639 33.5673 15.8951 33.6213C15.6846 33.6632 15.4723 33.7001 15.2585 33.7318C15.1702 33.7455 15.0812 33.7574 14.9913 33.7686C14.7441 33.8003 14.4945 33.8251 14.2423 33.8422C13.8994 33.8662 13.559 33.8773 13.2212 33.8722C13.1055 33.8713 12.9906 33.8688 12.8758 33.8636C12.87 33.8636 12.8633 33.8628 12.8575 33.8628H12.8417C12.7501 33.8585 12.6627 33.8542 12.5754 33.8508C12.185 33.8302 11.7956 33.7891 11.4136 33.7318C10.0662 33.5305 8.77957 33.1177 7.58782 32.5269C6.72313 32.0987 5.91005 31.5763 5.15854 30.9726C5.06284 30.8989 4.96796 30.821 4.87226 30.7345C4.23477 30.1958 3.64722 29.5964 3.11792 28.9421C3.07548 28.8907 3.03387 28.8376 2.99392 28.7854C2.64522 28.3427 2.32314 27.8768 2.03103 27.3895C2.01938 27.3733 2.01106 27.357 2.00357 27.3407C0.909189 25.5149 0.225098 23.398 0.0736325 21.109C-0.265084 15.9434 2.22993 11.2505 6.19051 8.64801C6.4202 8.49558 6.65572 8.35171 6.8954 8.21469C7.08182 8.1085 7.27157 8.00574 7.46465 7.90811C7.57117 7.85416 7.67936 7.80107 7.78838 7.74969C7.80419 7.7377 7.82084 7.72913 7.83665 7.72571C8.21032 7.5493 8.59648 7.39001 8.99012 7.25471C9.2065 7.17678 9.42537 7.10399 9.64675 7.03719C9.89725 6.96269 10.1502 6.89504 10.4074 6.83509C11.0624 6.6818 11.739 6.57904 12.4314 6.53108H12.433C12.438 6.53108 12.443 6.53022 12.448 6.53022C13.6123 6.45058 14.7508 6.52423 15.846 6.74175C15.8468 6.74089 15.8477 6.74175 15.8477 6.74175C15.9417 6.75973 16.0349 6.77943 16.1281 6.79998C16.5101 6.88219 16.888 6.9841 17.2583 7.10313C17.4489 7.16051 17.6361 7.22559 17.8234 7.29581C18.1621 7.41913 18.4975 7.55872 18.8254 7.71115C19.0393 7.81049 19.2507 7.91668 19.4587 8.028C19.502 8.05284 19.5503 8.07767 19.5935 8.10251C23.5125 10.252 26.2938 14.3702 26.6167 19.2626C26.8822 23.3175 25.4025 27.0812 22.8384 29.7728Z" fill="url(#paint0_linear_1258_1517)"/>
<path d="M22.5816 30.0357C22.515 30.1016 22.4484 30.1667 22.381 30.2301C22.158 30.4433 21.9283 30.648 21.6911 30.845C21.3873 31.0976 21.0719 31.3365 20.7465 31.5609C20.7307 31.5712 20.7157 31.5814 20.6999 31.5926C20.5834 31.6713 20.466 31.7493 20.347 31.8238C20.1989 31.9188 20.0483 32.0105 19.896 32.0987C19.6038 32.2691 19.3042 32.4292 18.998 32.5774C18.6742 32.7341 18.3439 32.8771 18.0068 33.0064C17.9394 33.0321 17.8712 33.0578 17.8029 33.0826C17.6989 33.1203 17.594 33.1571 17.4883 33.1923C17.2262 33.2813 16.9607 33.3627 16.6911 33.4346C16.4289 33.5057 16.1634 33.5682 15.8946 33.6221C15.5226 32.8617 15.2846 32.2177 15.2197 31.7416C15.1265 31.0522 15.486 30.1641 16.1193 29.3463C16.364 29.0295 16.6503 28.7237 16.9674 28.4437C16.9907 28.4232 17.0148 28.4026 17.0389 28.3821C17.321 28.1397 17.6256 27.9179 17.9469 27.7287C18.2889 27.5265 18.6493 27.3596 19.0196 27.2422C19.0662 27.226 19.1137 27.2123 19.1611 27.1986C19.2268 27.1797 19.2926 27.1626 19.3592 27.148C19.6812 27.0718 20.0091 27.035 20.337 27.0444C20.5384 27.0504 20.7398 27.0735 20.9404 27.1163C20.9404 27.1163 21.3898 27.7475 22.1105 28.7563C22.3294 29.0629 22.5732 29.4046 22.8379 29.7736C22.7538 29.8619 22.6681 29.9492 22.5816 30.0357Z" fill="black"/>
<path d="M14.5749 14.4834L9.64648 14.5279L10.4263 25.1485L17.4195 27.4076L16.8336 24.0515L14.5749 14.4834Z" fill="#FDCBB2"/>
<path d="M9.87109 17.5918L15.4154 18.044L16.3608 22.05L9.87109 17.5918Z" fill="#EAB7A0"/>
<path d="M17.0853 20.7713L9.87071 17.5925L5.52148 3.88811C23.7431 -4.37751 18.714 18.8145 18.714 18.8145C18.714 18.8145 21.4287 20.0914 17.0845 20.7722L17.0853 20.7713Z" fill="#FDCBB2"/>
<path d="M9.64659 7.00953C9.60248 3.31689 15.2816 4.15185 8.99828 2.86387C2.96463 1.62729 5.78172 8.25811 6.6797 9.51782C8.80271 12.4945 7.57018 12.0372 8.99662 13.0135L10.8708 13.708C9.87129 9.42619 9.67904 9.68738 9.64659 7.01039V7.00953Z" fill="#005C82"/>
<path d="M12.4496 6.5349C16.9336 7.41353 18.1894 5.78473 18.1894 5.78473C19.2663 3.53934 19.1324 0.0410979 13.9667 1.09871C10.4472 1.81977 5.61365 2.84055 6.2811 4.84701C8.99666 13.0116 8.17941 5.69824 12.4496 6.5349Z" fill="#005C82"/>
<path d="M9.41386 14.4329C10.0271 13.9666 9.85781 12.6604 9.03566 11.5155C8.21351 10.3705 7.04988 9.82031 6.4366 10.2866C5.82333 10.7529 5.99265 12.059 6.8148 13.204C7.63695 14.349 8.80058 14.8991 9.41386 14.4329Z" fill="#FDCBB2"/>
<path d="M6.79883 11.1508C7.52287 10.9222 8.19364 11.5285 8.48492 12.1648C8.52404 12.2598 8.56481 12.354 8.60143 12.4491C8.54817 12.3617 8.4999 12.2727 8.44914 12.1853C8.10543 11.5978 7.51288 11.0386 6.79883 11.1508Z" fill="#CA807A"/>
<path d="M16.0021 9.9958L11.9316 10.3418C11.9316 10.3418 12.297 9.2482 13.9598 9.12145C15.6226 8.99471 16.0029 9.99495 16.0029 9.99495L16.0021 9.9958Z" fill="#001848"/>
<path d="M19.3425 10.2849L17.207 10.1316C17.207 10.1316 17.5832 9.04235 18.4745 9.17765C19.3467 9.30953 19.3425 10.2849 19.3425 10.2849Z" fill="#001848"/>
<path d="M13.2989 12.3571C13.3871 11.7884 13.849 11.2326 14.4274 11.1796C14.6122 11.1624 14.7969 11.2001 14.9667 11.2755C14.9908 11.2866 15.0125 11.2498 14.9875 11.2386C14.6887 11.1059 14.3617 11.0973 14.0637 11.2378C13.7882 11.3671 13.5635 11.6035 13.4187 11.8749C13.3405 12.0214 13.2839 12.1815 13.2581 12.3468C13.254 12.3733 13.2939 12.3853 13.2981 12.3579L13.2989 12.3571Z" fill="#001848"/>
<path d="M15.0209 12.1258C15.0724 11.7378 14.9149 11.3952 14.6689 11.3606C14.423 11.3261 14.1819 11.6126 14.1304 12.0006C14.0789 12.3886 14.2365 12.7312 14.4824 12.7657C14.7283 12.8003 14.9694 12.5138 15.0209 12.1258Z" fill="#001848"/>
<path d="M16.2949 10.4014C17.6706 13.5554 19.0696 15.3443 19.0696 15.3443L18.006 15.4753L16.4897 14.9144L16.2949 10.4014Z" fill="#EAB7A0"/>
<path d="M17.6461 11.8383C17.6719 11.6191 17.7885 11.4092 17.9308 11.2474C18.0731 11.0855 18.2595 10.9477 18.4734 10.9537C18.6065 10.9571 18.7222 11.0247 18.8146 11.1189C18.8337 11.1386 18.8629 11.1078 18.8437 11.089C18.6748 10.9168 18.4501 10.8655 18.2304 10.9631C18.0107 11.0607 17.8359 11.2619 17.7227 11.4752C17.6628 11.5882 17.6187 11.7098 17.6037 11.8383C17.6004 11.8657 17.642 11.8657 17.6453 11.8383H17.6461Z" fill="#001848"/>
<path d="M18.7187 11.8437C18.7829 11.5396 18.7206 11.2675 18.5795 11.236C18.4385 11.2045 18.2722 11.4255 18.208 11.7296C18.1438 12.0337 18.2061 12.3058 18.3472 12.3373C18.4882 12.3688 18.6546 12.1478 18.7187 11.8437Z" fill="#001848"/>
<path d="M14.8145 16.1512C15.0916 16.7987 15.8947 17.0119 16.5122 16.8106C16.6029 16.7832 16.6878 16.7379 16.7644 16.6805C16.1543 17.1215 15.0991 16.8937 14.8145 16.1504V16.1512Z" fill="#CA807A"/>
<path fill-rule="evenodd" clip-rule="evenodd" d="M14.7227 16.1712V16.1501L14.8895 16.1174L14.9008 16.1123C14.9012 16.1132 14.9016 16.1141 14.902 16.115L14.9022 16.115C14.903 16.1169 14.9037 16.1188 14.9045 16.1208C15.1597 16.7025 15.8996 16.9099 16.4854 16.719L16.4863 16.7187L16.4873 16.7184C16.5183 16.709 16.5488 16.6972 16.5785 16.6831C16.6252 16.6594 16.6699 16.6323 16.7122 16.6018L16.8203 16.7577C16.7704 16.7951 16.7168 16.8282 16.6602 16.8554C16.3534 17.011 15.9825 17.0371 15.6465 16.9524C15.2531 16.8532 14.8917 16.5976 14.7333 16.1961C14.7324 16.1939 14.7315 16.1918 14.7306 16.1897L14.7227 16.1712ZM14.8157 16.1501V16.151C14.8167 16.1535 14.8178 16.156 14.8189 16.1584C15.0714 16.8015 15.9034 17.0543 16.515 16.8159C16.515 16.8158 16.5151 16.8158 16.5151 16.8158C16.5506 16.802 16.5854 16.7865 16.6192 16.7693C16.6707 16.7448 16.7196 16.7147 16.7656 16.6802C16.7192 16.7138 16.6702 16.7434 16.6192 16.7693C16.585 16.7856 16.5497 16.7994 16.5134 16.8104C15.8983 17.0109 15.099 16.8 14.8189 16.1584C14.8179 16.156 14.817 16.1535 14.816 16.151C14.816 16.1509 14.816 16.1509 14.816 16.1509C14.8159 16.1506 14.8158 16.1504 14.8157 16.1501Z" fill="#CA807A"/>
<path d="M11.4136 33.7323C10.0662 33.5311 8.77958 33.1183 7.58783 32.5274C7.27325 29.4 7.19835 27.1965 7.5096 26.9414C7.75011 26.7435 7.95234 26.496 8.12961 26.2271C8.19203 26.1321 8.25111 26.0345 8.30854 25.9351C8.89526 24.9109 9.21151 23.7266 9.91224 23.7266C9.98548 23.7266 10.0845 23.7334 10.2044 23.7463C10.2426 23.7505 10.2826 23.7557 10.325 23.7608C10.4931 23.7814 10.6937 23.8113 10.9192 23.8482C10.9267 23.849 10.935 23.8507 10.9434 23.8524C12.2833 24.0708 14.4895 24.523 16.0716 24.773C16.1814 24.7902 16.2888 24.8073 16.392 24.8219C16.5651 24.8475 16.7282 24.8707 16.8797 24.8886C16.9146 24.8929 16.9487 24.8972 16.982 24.9006C17.1326 24.9186 17.2691 24.9315 17.389 24.94C17.4689 24.9452 17.5413 24.9477 17.6062 24.9486C17.7851 24.9503 18.0007 25.1344 18.2445 25.4761C18.3169 25.5763 18.391 25.6902 18.4675 25.8178C18.6831 26.1775 18.9169 26.6425 19.1616 27.1983C19.5528 28.082 19.9722 29.1953 20.3983 30.479C20.514 30.8275 20.6305 31.1881 20.747 31.5606C20.7312 31.5709 20.7162 31.5811 20.7004 31.5923C20.5839 31.671 20.4666 31.749 20.3475 31.8235C20.1994 31.9185 20.0488 32.0102 19.8965 32.0984C19.6044 32.2688 19.3048 32.4289 18.9985 32.5771C18.6748 32.7338 18.3444 32.8768 18.0073 33.0061C17.9399 33.0318 17.8717 33.0575 17.8034 33.0823C17.6994 33.12 17.5945 33.1568 17.4888 33.192C17.2267 33.281 16.9612 33.3624 16.6916 33.4343C16.4294 33.5054 16.1639 33.5679 15.8951 33.6218C15.6846 33.6638 15.4724 33.7006 15.2585 33.7323C15.1703 33.746 15.0812 33.758 14.9913 33.7691C14.7442 33.8008 14.4945 33.8257 14.2423 33.8428C13.8994 33.8668 13.5591 33.8779 13.2212 33.8728C13.1055 33.8719 12.9907 33.8693 12.8758 33.8642C12.87 33.8642 12.8633 33.8633 12.8575 33.8633H12.8417C12.7501 33.8591 12.6628 33.8548 12.5754 33.8514C12.1851 33.8308 11.7956 33.7897 11.4136 33.7323Z" fill="#D4D5D6"/>
<path d="M22.1114 28.756C22.1896 29.1199 22.2811 29.6175 22.3818 30.2298C22.1588 30.443 21.9291 30.6477 21.6919 30.8447C21.3882 31.0973 21.0727 31.3362 20.7473 31.5606C20.7315 31.5709 20.7165 31.5811 20.7007 31.5923C20.6 31.2103 20.4993 30.8387 20.3986 30.479C20.0391 29.1919 19.6846 28.0615 19.36 27.1477C19.0363 26.2357 18.7433 25.5412 18.5078 25.125C18.5078 25.125 19.5481 25.9103 20.511 26.7341C21.0811 27.2222 21.6245 27.7232 21.9083 28.0829C21.9616 28.1505 22.0298 28.3818 22.1114 28.756Z" fill="black"/>
<path d="M18.9992 32.5774C18.6755 32.7341 18.3451 32.8771 18.008 33.0064C17.9406 33.0321 17.8724 33.0578 17.8041 33.0826C17.4895 31.3511 17.2024 29.7531 16.9686 28.4437C16.887 27.9881 16.8121 27.5677 16.7447 27.1891C16.5042 25.837 16.3594 25.0123 16.3594 25.0123C16.361 25.0114 16.3635 25.0114 16.3652 25.0114C16.411 25.0003 16.4509 25.0106 16.5699 24.9849C16.6398 24.9695 16.7372 24.9412 16.8803 24.889C16.9095 24.8778 16.9411 24.8667 16.9744 24.853C17.0743 24.8145 17.1924 24.7656 17.3331 24.7031C17.3331 24.7031 17.3547 24.7913 17.3897 24.9403C17.4379 25.1476 17.512 25.4721 17.5919 25.8361C17.7334 26.4826 17.8907 27.2559 17.9481 27.7287C17.9581 27.8126 17.9647 27.8862 17.9681 27.9487C17.9806 28.2039 18.4058 30.0605 18.9992 32.5774Z" fill="url(#paint1_linear_1258_1517)"/>
<path d="M17.4894 33.1917C17.2272 33.2807 16.9617 33.3621 16.6921 33.434C16.4849 31.7573 16.2876 30.3126 16.1203 29.3457C16.0255 28.7934 15.9398 28.3969 15.8682 28.2033C15.8682 28.2033 15.0901 27.2554 14.3552 26.4769C14.3277 26.4478 14.3003 26.4187 14.2728 26.3904C13.9133 26.0136 13.5704 25.6882 13.3457 25.5486C13.3457 25.5486 16.1104 24.7162 16.3592 25.0117C16.4915 25.1667 16.5764 26.3245 16.7487 27.1903C16.7836 27.3615 16.8211 27.5217 16.8635 27.6604C16.9143 27.8497 16.9734 28.0929 17.04 28.3815C17.2813 29.4245 17.6225 31.0705 18.0078 33.0058C17.9404 33.0315 17.8722 33.0572 17.8039 33.0821C17.6999 33.1197 17.5951 33.1566 17.4894 33.1917Z" fill="url(#paint2_linear_1258_1517)"/>
<path d="M21.6915 30.8445C21.3877 31.0972 21.0723 31.3361 20.7469 31.5605C20.7311 31.5707 20.7161 31.581 20.7003 31.5922C20.5838 31.6709 20.4664 31.7489 20.3474 31.8234C19.8764 30.0481 19.4128 28.4142 19.02 27.2418C18.8128 26.6227 18.6256 26.132 18.4674 25.8177C18.4108 25.7064 18.3584 25.6165 18.3101 25.5514C18.2802 25.5111 18.2502 25.4709 18.2219 25.4323C17.1251 23.9577 17.0859 23.8249 17.0859 23.8249L17.1275 23.4961C17.1683 23.5329 17.2091 23.5715 17.2507 23.6091C18.5765 24.82 20.6237 26.531 20.6237 26.531L20.5106 26.734L20.3375 27.044L20.2584 27.1862L21.3486 27.837L21.6915 30.8445Z" fill="#26282D"/>
<path d="M11.4128 33.732C10.0655 33.5308 8.77883 33.118 7.58708 32.5271C6.7224 32.0989 5.90931 31.5765 5.15781 30.9728C5.0621 30.8991 4.96723 30.8212 4.87152 30.7347C4.23404 30.1961 3.64648 29.5966 3.11719 28.9424C3.17794 28.7385 3.24036 28.5467 3.30361 28.3669C3.51333 27.7657 3.72887 27.2939 3.90281 26.9368C4.39882 25.9168 6.14317 24.8995 7.58292 23.6038C8.23872 23.0146 8.83126 22.3681 9.21409 21.6367C9.21409 21.6367 9.55696 22.3997 10.2036 23.7459C10.2485 23.8401 10.2952 23.9378 10.3443 24.038C10.5307 24.4259 10.7404 24.8558 10.9709 25.3242C11.3379 26.0701 11.759 26.9136 12.2309 27.8402C12.8959 29.1453 14.0127 31.3068 14.9906 33.7688C14.7434 33.8005 14.4937 33.8253 14.2416 33.8425C13.8987 33.8664 13.5583 33.8776 13.2204 33.8724C13.1048 33.8716 12.9899 33.869 12.8751 33.8639C12.8692 33.8639 12.8626 33.863 12.8567 33.863H12.8409C12.7494 33.8587 12.662 33.8545 12.5746 33.851C12.1843 33.8305 11.7948 33.7894 11.4128 33.732Z" fill="black"/>
<path d="M12.6221 26.5751C13.2637 27.7937 14.3306 30.6865 15.2577 33.7326C15.1695 33.7463 15.0805 33.7583 14.9906 33.7694C14.7434 33.8011 14.4937 33.826 14.2416 33.8431C13.8987 33.8671 13.5583 33.8782 13.2204 33.8731C13.1047 33.8722 12.9899 33.8696 12.8751 33.8645C11.0425 30.9203 9.28981 28.1817 9.28981 28.1817L9.39384 27.9393L10.3542 25.7059L8.30779 25.9354L7.81428 25.9902L7.58292 23.6044L7.54297 23.1882L8.90865 21.0225C8.90865 21.0225 9.20659 21.4113 9.64601 22.0133C9.82993 22.265 10.0372 22.5528 10.2577 22.8645C10.4774 23.1745 10.7088 23.5076 10.9426 23.8527C11.1116 24.1019 11.2822 24.3571 11.4486 24.6132L11.4678 24.6423C11.6983 24.9968 11.9222 25.3531 12.1277 25.6991C12.3083 26.0022 12.4756 26.2968 12.6221 26.5751Z" fill="#26282D"/>
<path d="M16.9005 22.9531L18.3144 25.6061L18.8587 27.2384C18.8587 27.2384 16.8306 24.832 16.481 24.9819C16.1332 25.1343 16.9013 22.9531 16.9013 22.9531H16.9005Z" fill="white"/>
<path d="M9.64648 22.0132L11.4491 24.6131L13.3449 27.4075C13.3449 27.4075 16.0089 24.8623 16.3584 25.0122C16.5698 25.1056 11.8011 21.5525 9.78713 20.6533L9.64648 22.0141V22.0132Z" fill="white"/>
<path d="M13.2214 33.8723C13.1057 33.8714 12.9909 33.8689 12.876 33.8637C12.8702 33.8637 12.8635 33.8629 12.8577 33.8629H12.8419C12.7503 33.8586 12.663 33.8543 12.5756 33.8509C12.1853 33.8303 11.7958 33.7892 11.4138 33.7319C10.0664 33.5306 8.77979 33.1178 7.58804 32.527C6.72335 32.0988 5.91027 31.5764 5.15876 30.9727C5.06306 30.899 4.96818 30.8211 4.87248 30.7346C4.23499 30.1959 3.64744 29.5965 3.11814 28.9422C3.0757 28.8908 3.03409 28.8377 2.99414 28.7855C3.08818 28.6451 3.19221 28.5046 3.30456 28.3667C4.41142 27.0094 6.34136 25.8619 8.12982 26.2267C8.1964 26.2395 8.26131 26.2549 8.32706 26.2721C8.32706 26.2721 8.73651 26.9126 9.3948 27.9386C10.3244 29.3875 11.7508 31.6055 13.2214 33.8723Z" fill="black"/>
<defs>
<linearGradient id="paint0_linear_1258_1517" x1="7.7218" y1="7.77795" x2="19.5039" y2="32.3339" gradientUnits="userSpaceOnUse">
<stop stop-color="#E16E56"/>
<stop offset="1" stop-color="#E85D2C"/>
</linearGradient>
<linearGradient id="paint1_linear_1258_1517" x1="16.3594" y1="28.8933" x2="18.9992" y2="28.8933" gradientUnits="userSpaceOnUse">
<stop stop-color="#DB8E76"/>
<stop offset="0.48" stop-color="#CE5B4D"/>
<stop offset="1" stop-color="#C22926"/>
</linearGradient>
<linearGradient id="paint2_linear_1258_1517" x1="13.3457" y1="29.1916" x2="18.0078" y2="29.1916" gradientUnits="userSpaceOnUse">
<stop stop-color="#E16E56"/>
<stop offset="1" stop-color="#E85D2C"/>
</linearGradient>
</defs>
</svg>
